<?xml version="1.0" encoding="utf-8"?>
<!-- Generator: Adobe Illustrator 24.0.1, SVG Export Plug-In . SVG Version: 6.00 Build 0)  -->
<svg version="1.1" id="Layer_1" xmlns="http://www.w3.org/2000/svg" xmlns:xlink="http://www.w3.org/1999/xlink" x="0px" y="0px"
	 width="74.9px" height="75.1px" viewBox="0 0 74.9 75.1" style="enable-background:new 0 0 74.9 75.1;" xml:space="preserve">
<style type="text/css">
	.st0{fill:#FFFFFF;}
</style>
<g id="phone-call" transform="translate(0.391 1.761)">
	<g id="Path_7196">
		<path class="st0" d="M60.5,72.5c-0.3,0-0.6,0-0.9,0c-10.3-1.1-20.3-4.7-28.9-10.3c-8-5.1-14.9-12-20-20
			C5.1,33.5,1.6,23.5,0.5,13.2C0.2,10.5,1,7.9,2.8,5.8c1.7-2.1,4.1-3.3,6.8-3.6c0.3,0,0.6,0,0.9,0h9.4c0,0,0.1,0,0.1,0
			c5,0,9.2,3.7,9.9,8.7c0.4,2.8,1,5.5,2,8.1c1.4,3.7,0.5,7.8-2.3,10.6l-1.9,1.9c3.5,5.4,8.1,10,13.6,13.6l1.9-1.9
			c2.8-2.8,7-3.7,10.6-2.3c2.6,1,5.3,1.6,8,2c5.1,0.7,8.8,5.1,8.7,10.2v9.4c0,2.7-1,5.2-2.9,7.1C65.8,71.4,63.3,72.5,60.5,72.5
			C60.5,72.5,60.5,72.5,60.5,72.5z M60.4,65c0,0,0.1,0,0.2,0c0.7,0,1.3-0.3,1.8-0.7c0.5-0.5,0.7-1.1,0.7-1.8V53c0,0,0-0.1,0-0.1
			c0-1.3-0.9-2.4-2.2-2.6c-3.3-0.4-6.5-1.2-9.6-2.4c-0.9-0.3-2-0.1-2.7,0.6l-4,4c-1.2,1.2-3.1,1.5-4.5,0.6
			c-8.5-4.8-15.5-11.8-20.3-20.3c-0.8-1.5-0.6-3.3,0.6-4.5l4-4c0.7-0.7,0.9-1.7,0.6-2.6c-1.2-3.1-2-6.4-2.4-9.7
			c-0.2-1.2-1.3-2.2-2.5-2.1h-9.5c-0.1,0-0.2,0-0.2,0C9.6,9.8,9,10.1,8.6,10.7c-0.4,0.5-0.6,1.2-0.6,1.8c1,9,4.1,17.9,9.1,25.6
			c4.5,7.1,10.7,13.2,17.8,17.8C42.5,60.8,51.3,64,60.4,65C60.4,65,60.4,65,60.4,65z M57.4,31.6c-1.8,0-3.4-1.3-3.7-3.1
			c-0.9-4.8-4.6-8.5-9.5-9.5c-2-0.4-3.4-2.4-3-4.4c0.4-2,2.4-3.4,4.4-3c7.8,1.5,13.9,7.6,15.4,15.4c0.4,2-0.9,4-3,4.4
			C57.9,31.6,57.6,31.6,57.4,31.6z M70,31.6c-1.9,0-3.5-1.4-3.7-3.4C64.9,16.8,56,7.9,44.5,6.6c-2.1-0.2-3.6-2.1-3.3-4.2
			c0.2-2.1,2.1-3.6,4.2-3.3c15,1.7,26.7,13.3,28.4,28.3c0.2,2.1-1.3,3.9-3.3,4.2C70.2,31.6,70.1,31.6,70,31.6z"/>
	</g>
</g>
</svg>
